<svg width="11" height="6" viewBox="0 0 11 6" fill="none" xmlns="http://www.w3.org/2000/svg">
<path d="M1.10304 0.244222C1.20236 0.373321 1.49887 0.758717 1.67547 0.980885C2.02916 1.42586 2.51244 2.01713 3.03377 2.60664C3.55773 3.19914 4.10816 3.77617 4.59714 4.20037C4.84233 4.41307 5.05772 4.5747 5.23546 4.6799C5.40262 4.77884 5.50136 4.79941 5.50136 4.79941C5.50136 4.79941 5.59721 4.77884 5.76436 4.6799C5.9421 4.5747 6.15748 4.41308 6.40267 4.20037C6.89166 3.77618 7.44208 3.19914 7.96604 2.60663C8.48737 2.01711 8.97065 1.42583 9.32434 0.980858C9.50094 0.758688 9.79705 0.373837 9.89636 0.244736C10.0965 -0.0220823 10.4795 -0.0796308 10.7512 0.116875C11.023 0.313382 11.0811 0.688981 10.8809 0.9558L10.8795 0.957693C10.7754 1.09297 10.4681 1.49237 10.2879 1.71913C9.92621 2.17416 9.42882 2.78288 8.88895 3.39337C8.35172 4.00087 7.76043 4.62383 7.21196 5.09963C6.93842 5.33693 6.66115 5.5503 6.39538 5.7076C6.14639 5.85498 5.83114 6 5.4999 6C5.16867 6 4.85343 5.85497 4.60443 5.7076C4.33867 5.5503 4.06139 5.33692 3.78786 5.09963C3.23938 4.62383 2.64809 4.00087 2.11086 3.39338C1.571 2.7829 1.07361 2.17419 0.711926 1.71916C0.531619 1.49233 0.224497 1.09311 0.12054 0.957974L0.119192 0.956222C-0.0809569 0.689404 -0.0231896 0.313424 0.248571 0.116916C0.520323 -0.0795856 0.902885 -0.022573 1.10304 0.244222Z" fill="currentColor"/>
</svg>
