<svg width="30" height="30" viewBox="0 0 30 30" fill="none" xmlns="http://www.w3.org/2000/svg">
    <g>
        <path d="M14.9999 30C6.729 30 0.000211716 23.2709 0.000211716 14.9999C0.000211716 6.72906 6.729 0 14.9999 0C23.2707 0 29.9997 6.72906 29.9997 14.9999C29.9997 23.2709 23.2707 30 14.9999 30ZM14.9999 2.05338C7.86123 2.05338 2.05359 7.86116 2.05345 14.9999C2.05345 22.1387 7.86109 27.9465 14.9999 27.9466C22.1385 27.9465 27.9461 22.1387 27.9461 14.9998C27.9461 7.86129 22.1385 2.05338 14.9999 2.05338Z" fill="currentColor"/>
        <path d="M17.0143 21.4246C16.8217 21.617 16.5606 21.7251 16.2884 21.7251C16.0161 21.7251 15.755 21.617 15.5624 21.4246C15.4671 21.3292 15.3914 21.216 15.3398 21.0914C15.2882 20.9668 15.2616 20.8333 15.2617 20.6985C15.2617 20.5636 15.2882 20.4301 15.3399 20.3055C15.3915 20.1809 15.4672 20.0677 15.5626 19.9724L19.5078 16.0273L8.08322 16.0262C7.81093 16.0262 7.54979 15.918 7.35726 15.7255C7.16473 15.5329 7.05658 15.2718 7.0566 14.9995C7.05662 14.7272 7.1648 14.466 7.35736 14.2735C7.54991 14.081 7.81106 13.9728 8.08336 13.9728L19.5084 13.9739L15.5622 10.028C15.3696 9.83548 15.2614 9.57432 15.2614 9.302C15.2614 9.02968 15.3696 8.76851 15.5621 8.57595C15.7547 8.38338 16.0158 8.27519 16.2881 8.27518C16.5604 8.27516 16.8216 8.38333 17.0142 8.57588L22.7129 14.2744C22.8082 14.3697 22.8839 14.4829 22.9355 14.6075C22.9871 14.732 23.0136 14.8655 23.0136 15.0004C23.0135 15.2727 22.9053 15.5339 22.7127 15.7266L17.0143 21.4246Z" fill="currentColor"/>
    </g>
</svg>
