<svg width="9" height="16" viewBox="0 0 9 16" fill="none" xmlns="http://www.w3.org/2000/svg">
    <path d="M0.366334 14.3956C0.559982 14.2511 1.13808 13.8198 1.47133 13.563C2.13878 13.0485 3.02569 12.3455 3.90997 11.5872C4.79871 10.8251 5.66426 10.0245 6.30055 9.31325C6.61961 8.95661 6.86205 8.64332 7.01985 8.38479C7.16826 8.14165 7.19912 7.99802 7.19912 7.99802C7.19912 7.99802 7.16825 7.85861 7.01985 7.61548C6.86205 7.35695 6.61962 7.04366 6.30056 6.68702C5.66426 5.97577 4.7987 5.17516 3.90995 4.41303C3.02567 3.65473 2.13875 2.95178 1.47129 2.43732C1.13803 2.18045 0.560755 1.74975 0.367104 1.60529C-0.0331233 1.31417 -0.119447 0.757122 0.175313 0.361832C0.470072 -0.0334579 1.03347 -0.117902 1.4337 0.173221L1.4369 0.175607C1.64015 0.327232 2.23875 0.773777 2.5787 1.03579C3.26124 1.56188 4.17433 2.28536 5.09005 3.07061C6.0013 3.85204 6.93574 4.7121 7.64945 5.50988C8.00539 5.90775 8.32545 6.31106 8.5614 6.69763C8.78246 7.0598 9 7.51834 9 8.00014C9 8.48193 8.78246 8.94047 8.5614 9.30264C8.32544 9.68921 8.00539 10.0925 7.64945 10.4904C6.93575 11.2882 6.00131 12.1482 5.09007 12.9297C4.17435 13.7149 3.26128 14.4384 2.57875 14.9645C2.23852 15.2267 1.63978 15.6734 1.43703 15.8246L1.43433 15.8266C1.03411 16.1178 0.470136 16.0337 0.175374 15.6384C-0.119378 15.2432 -0.0338594 14.6867 0.366334 14.3956Z" fill="currentColor"/>
</svg>
