<svg width="30" height="30" viewBox="0 0 30 30" fill="none" xmlns="http://www.w3.org/2000/svg">
    <path d="M25 5.85176V18.7893C25 19.2597 24.6186 19.6411 24.1482 19.6411C23.6778 19.6411 23.2964 19.2597 23.2964 18.7893V7.90824L6.4541 24.7505C6.28773 24.9168 6.0698 25 5.8518 25C5.63379 25 5.41586 24.9168 5.24949 24.7505C4.91684 24.4179 4.91684 23.8786 5.24949 23.5459L22.0919 6.70351H11.2107C10.7403 6.70351 10.3589 6.32215 10.3589 5.85176C10.3589 5.38137 10.7403 5 11.2107 5H24.1482C24.6186 4.99996 25 5.38137 25 5.85176Z" fill="currentColor"/>
</svg>
